<svg width="52" height="52" viewBox="0 0 52 52" fill="none" xmlns="http://www.w3.org/2000/svg">
<path d="M0.197338 14.9061L8.69719 4.70622C8.85865 4.51328 9.09752 4.40112 9.35002 4.40112H41.6496C41.902 4.40112 42.1409 4.51248 42.3024 4.70622L50.8023 14.9061C51.014 15.1594 51.0599 15.5121 50.9196 15.8104C50.7794 16.1088 50.4794 16.3 50.1496 16.3H0.850269C0.520466 16.3 0.220448 16.1088 0.0802002 15.8104C-0.0593491 15.513 -0.014328 15.1602 0.197338 14.9061ZM48.3347 14.6001L41.2518 6.10024H9.74865L2.66573 14.6001H48.3347Z" fill="#A4A4A4"/>
<path d="M24.7145 4.92483C24.8463 4.60698 25.1565 4.40039 25.4999 4.40039H41.6496C41.9539 4.40039 42.2344 4.56275 42.3865 4.82711C42.5386 5.09147 42.5378 5.4153 42.384 5.67876L36.4341 15.8786C36.3015 16.1055 36.0711 16.2594 35.8093 16.2934C35.7728 16.2977 35.7362 16.3002 35.7006 16.3002C35.4761 16.3002 35.2594 16.2118 35.0987 16.0511L24.8989 5.85128C24.6558 5.60824 24.5827 5.24268 24.7145 4.92483ZM35.5221 14.0698L40.1707 6.1004H27.5526L35.5221 14.0698Z" fill="#A4A4A4"/>
<path d="M0.0896835 15.0728C0.232521 14.7829 0.528259 14.5994 0.851288 14.5994H50.1506C50.4736 14.5994 50.7685 14.7829 50.9122 15.0728C51.055 15.3627 51.0219 15.7086 50.8255 15.9653L26.1758 48.2649C26.0152 48.4757 25.7652 48.5998 25.5001 48.5998C25.2349 48.5998 24.985 48.4757 24.826 48.2649L0.176342 15.9653C-0.0199852 15.7086 -0.0530548 15.3627 0.0896835 15.0728ZM25.5001 46.349L48.4319 16.3003H2.56823L25.5001 46.349Z" fill="#A4A4A4"/>
<path d="M24.688 47.4931L34.8879 15.1935C35 14.8399 35.3274 14.5994 35.6988 14.5994H50.1486C50.4717 14.5994 50.7666 14.7829 50.9102 15.0728C51.0531 15.3627 51.0199 15.7086 50.8236 15.9653L26.1739 48.2649C26.009 48.4816 25.7565 48.5998 25.4981 48.5998C25.3656 48.5998 25.2313 48.5692 25.1072 48.5028C24.7407 48.3134 24.564 47.8867 24.688 47.4931ZM48.4308 16.3003H36.3218L27.7744 43.3674L48.4308 16.3003Z" fill="#A4A4A4"/>
<path d="M8.61268 4.82711C8.76398 4.56275 9.04527 4.40039 9.34958 4.40039H25.4994C25.8428 4.40039 26.153 4.60698 26.2848 4.92483C26.4166 5.24268 26.3435 5.60824 26.1004 5.85128L15.9005 16.0511C15.7407 16.2118 15.524 16.3002 15.2996 16.3002C15.263 16.3002 15.2264 16.2976 15.1899 16.2934C14.9289 16.2594 14.6977 16.1064 14.5652 15.8786L8.61527 5.67876C8.46227 5.4153 8.46137 5.09147 8.61268 4.82711ZM15.4781 14.0698L23.4476 6.1004H10.8296L15.4781 14.0698Z" fill="#A4A4A4"/>
<path d="M0.0879707 15.0745C0.230808 14.7847 0.526543 14.6011 0.849573 14.6011H15.2994C15.6708 14.6011 15.999 14.8416 16.1103 15.1952L26.3102 47.4948C26.4343 47.8875 26.2575 48.3142 25.8911 48.5047C25.767 48.5692 25.6327 48.5999 25.5002 48.5999C25.2426 48.5999 24.9902 48.4817 24.8244 48.2667L0.174728 15.9671C-0.021698 15.7102 -0.0547676 15.3643 0.0879707 15.0745ZM23.2246 43.3672L14.6772 16.3001H2.56821L23.2246 43.3672Z" fill="#A4A4A4"/>
</svg>
