<svg width="52" height="52" viewBox="0 0 52 52" fill="none" xmlns="http://www.w3.org/2000/svg">
<path d="M26.1367 50.0001C36.6885 50.0001 45.2734 41.4156 45.2734 30.8634C45.2734 23.2197 40.7581 16.6276 34.2643 13.5637C34.3978 13.4612 34.5349 13.3646 34.6572 13.2442C35.4043 12.4976 35.8154 11.5035 35.8154 10.4454C35.8154 8.5171 34.4217 6.91334 32.5883 6.56983L32.1367 6.99616C32.3154 6.68659 32.767 6.8794 32.5883 6.56983L32.1367 6.50007C31.3293 6.43031 31.2559 6.49616 30.8984 6.49616H21.375C21.0176 6.49616 20.6367 6.50007 20.333 6.56751L19.707 6.56747C19.5283 6.87704 19.707 6.49616 20.333 6.56751H19.6838C18.9052 6.71223 18.1879 7.08308 17.6162 7.65437C16.8691 8.40095 16.458 9.39216 16.458 10.4454C16.458 11.718 17.0723 12.8398 18.0084 13.5641C11.5151 16.6281 7 23.2199 7 30.8634C7 41.4156 15.585 50.0001 26.1367 50.0001ZM21.9521 8.49616H30.3213L31.0994 6.99616L30.3213 6.49616H21.9521L21.6367 7.00007L21.9521 8.49616ZM20.415 12.4024C19.3359 12.4024 18.458 11.5245 18.458 10.4454C18.458 9.92634 18.6611 9.43806 19.0303 9.06892C19.3994 8.69978 19.8916 8.49616 20.415 8.49616H21.375H30.8984H31.8584C32.9375 8.49616 33.8154 9.37068 33.8154 10.4454C33.8154 10.9693 33.6123 11.461 33.249 11.8248C32.8701 12.1973 32.376 12.4024 31.8584 12.4024H31.0994C29.5136 11.9755 27.8555 11.7266 26.1367 11.7266C24.418 11.7266 22.7598 11.9755 21.174 12.4024H20.415ZM26.1367 13.7266C35.5859 13.7266 43.2734 21.4141 43.2734 30.8634C43.2734 40.3126 35.5859 48.0001 26.1367 48.0001C16.6875 48.0001 9 40.3126 9 30.8634C9 21.4141 16.6875 13.7266 26.1367 13.7266Z" fill="#2B2B2B"/>
<path d="M26.1357 44.3037C33.5469 44.3037 39.5762 38.2744 39.5762 30.8633C39.5762 23.4526 33.5469 17.4233 26.1357 17.4233C18.7246 17.4233 12.6953 23.4526 12.6953 30.8633C12.6953 38.2744 18.7246 44.3037 26.1357 44.3037ZM26.1357 19.4233C32.4443 19.4233 37.5762 24.5552 37.5762 30.8633C37.5762 37.1714 32.4443 42.3037 26.1357 42.3037C19.8271 42.3037 14.6953 37.1714 14.6953 30.8633C14.6953 24.5552 19.8271 19.4233 26.1357 19.4233Z" fill="#2B2B2B"/>
<path d="M19.1367 7L16.1367 3" stroke="#2B2B2B" stroke-width="2" stroke-linecap="round"/>
<path d="M33.1367 7L36.1367 3" stroke="#2B2B2B" stroke-width="2" stroke-linecap="round"/>
<path d="M26.1367 7L26.1367 2" stroke="#2B2B2B" stroke-width="2" stroke-linecap="round"/>
</svg>
