<svg width="52" height="52" viewBox="0 0 52 52" fill="none" xmlns="http://www.w3.org/2000/svg">
<path d="M25.9997 51.2121C36.9513 51.2121 45.9331 42.3091 45.9331 31.2787C45.9331 23.4 41.2058 16.2303 34.0361 13.0788L39.1573 7.95754C39.2361 7.87875 39.3149 7.79996 39.3149 7.72118C39.3937 7.48481 39.3937 7.32724 39.3149 7.09087C39.2361 7.01208 39.2361 6.9333 39.1573 6.85451L33.327 1.02421C33.1694 0.86663 32.9331 0.787842 32.6967 0.787842C27.7331 0.787842 23.7937 0.787842 19.224 0.787842C18.9876 0.787842 18.83 0.86663 18.6725 1.02421L12.8422 6.85451C12.7634 6.9333 12.6846 7.01208 12.6846 7.09087C12.6058 7.16966 12.6058 7.32724 12.6058 7.40602C12.6058 7.48481 12.6058 7.64239 12.6846 7.72118C12.7634 7.79996 12.7634 7.87875 12.8422 7.95754L17.9634 13.0788C10.7937 16.2303 6.06641 23.4 6.06641 31.2787C6.06641 42.3091 15.0482 51.2121 25.9997 51.2121ZM21.1937 8.1939L24.1876 17.0181L23.1634 15.9939L20.0119 12.8424L15.3634 8.1939H21.1937ZM36.6361 8.1939L29.1513 15.6788L28.8361 15.9939L27.7331 17.0969L30.727 8.27269H36.6361V8.1939ZM25.9997 17.4909L22.8482 8.1939H29.1513L25.9997 17.4909ZM25.4482 20.4848C25.7634 20.8 26.2361 20.8 26.5513 20.4848L29.7028 17.3333C36.0058 18.9878 40.4179 24.6606 40.4179 31.2787C40.4179 39.2363 33.9573 45.6969 25.9997 45.6969C18.0422 45.6969 11.5816 39.2363 11.5816 31.2787C11.5816 24.6606 15.9937 19.0666 22.2967 17.4121L25.4482 20.4848ZM36.6361 6.61814H30.8058L29.3876 2.3636H32.4603L36.6361 6.61814ZM27.7331 2.3636L29.1513 6.61814H22.8482L24.2664 2.3636H27.7331ZM19.6179 2.3636H22.6906L21.2725 6.61814H15.4422L19.6179 2.3636ZM19.224 14.2606L21.0361 16.0727C14.4967 18.2 10.0058 24.2666 10.0058 31.2787C10.0058 40.103 17.1755 47.2727 25.9997 47.2727C34.824 47.2727 41.9937 40.103 41.9937 31.2787C41.9937 24.2666 37.5028 18.2 30.9634 16.0727L32.7755 14.2606C39.7088 17.0181 44.2785 23.7939 44.2785 31.2787C44.3573 41.4424 36.0846 49.6363 25.9997 49.6363C15.9149 49.6363 7.64216 41.4424 7.64216 31.2787C7.64216 23.7939 12.2906 17.0181 19.224 14.2606Z" fill="#2B2B2B"/>
<path d="M41.5993 14.7333C42.072 14.7333 42.3872 14.4181 42.3872 13.9454V13.2363H43.0963C43.569 13.2363 43.8841 12.9212 43.8841 12.4484C43.8841 11.9757 43.569 11.6605 43.0963 11.6605H42.3872V10.9515C42.3872 10.4787 42.072 10.1636 41.5993 10.1636C41.1266 10.1636 40.8114 10.4787 40.8114 10.9515V11.6605H40.1023C39.6296 11.6605 39.3145 11.9757 39.3145 12.4484C39.3145 12.9212 39.6296 13.2363 40.1023 13.2363H40.8114V13.9454C40.8114 14.4181 41.1266 14.7333 41.5993 14.7333Z" fill="#2B2B2B"/>
<path d="M10.4782 1.2605C10.0055 1.2605 9.69033 1.57565 9.69033 2.04838V2.75747H8.98124C8.50851 2.75747 8.19336 3.07262 8.19336 3.54535C8.19336 4.01807 8.50851 4.33323 8.98124 4.33323H9.69033V5.04232C9.69033 5.51504 10.0055 5.8302 10.4782 5.8302C10.9509 5.8302 11.2661 5.51504 11.2661 5.04232V4.33323H11.9752C12.4479 4.33323 12.7631 4.01807 12.7631 3.54535C12.7631 3.07262 12.4479 2.75747 11.9752 2.75747H11.2661V2.04838C11.2661 1.57565 10.9509 1.2605 10.4782 1.2605Z" fill="#2B2B2B"/>
<path d="M7.95693 9.92728V10.6364H7.24784C6.77511 10.6364 6.45996 10.9515 6.45996 11.4243C6.45996 11.897 6.77511 12.2121 7.24784 12.2121H7.95693V12.9212C7.95693 13.3939 8.27208 13.7091 8.74481 13.7091C9.21754 13.7091 9.53269 13.3939 9.53269 12.9212V12.2121H10.2418C10.7145 12.2121 11.0297 11.897 11.0297 11.4243C11.0297 10.9515 10.7145 10.6364 10.2418 10.6364H9.53269V9.92728C9.53269 9.45456 9.21754 9.1394 8.74481 9.1394C8.27208 9.1394 7.95693 9.45456 7.95693 9.92728Z" fill="#2B2B2B"/>
<path d="M41.5993 0.787842C41.1266 0.787842 40.8114 1.10299 40.8114 1.57572V2.28481H40.1023C39.6296 2.28481 39.3145 2.59996 39.3145 3.07269C39.3145 3.54542 39.6296 3.86057 40.1023 3.86057H40.8114V4.56966C40.8114 5.04239 41.1266 5.35754 41.5993 5.35754C42.072 5.35754 42.3872 5.04239 42.3872 4.56966V3.86057H43.0963C43.569 3.86057 43.8841 3.54542 43.8841 3.07269C43.8841 2.59996 43.569 2.28481 43.0963 2.28481H42.3872V1.57572C42.3872 1.10299 41.9932 0.787842 41.5993 0.787842Z" fill="#2B2B2B"/>
</svg>
