<svg width="22" height="22" viewBox="0 0 22 22" fill="none" xmlns="http://www.w3.org/2000/svg">
<path fill-rule="evenodd" clip-rule="evenodd" d="M3.98629 9.625H5.79098C6.17057 9.625 6.47856 9.317 6.47856 8.9375C6.47856 8.558 6.17057 8.25 5.79098 8.25H3.98629C3.60671 8.25 3.29871 8.558 3.29871 8.9375C3.29871 9.317 3.60671 9.625 3.98629 9.625Z" fill="#2B2B2B"/>
<path fill-rule="evenodd" clip-rule="evenodd" d="M3.98629 12.375H5.79098C6.17057 12.375 6.47856 12.067 6.47856 11.6875C6.47856 11.308 6.17057 11 5.79098 11H3.98629C3.60671 11 3.29871 11.308 3.29871 11.6875C3.29871 12.067 3.60671 12.375 3.98629 12.375Z" fill="#2B2B2B"/>
<path fill-rule="evenodd" clip-rule="evenodd" d="M3.98629 15.125H5.79098C6.17057 15.125 6.47856 14.817 6.47856 14.4375C6.47856 14.058 6.17057 13.75 5.79098 13.75H3.98629C3.60671 13.75 3.29871 14.058 3.29871 14.4375C3.29871 14.817 3.60671 15.125 3.98629 15.125Z" fill="#2B2B2B"/>
<path fill-rule="evenodd" clip-rule="evenodd" d="M3.98629 17.875H5.79098C6.17057 17.875 6.47856 17.567 6.47856 17.1875C6.47856 16.808 6.17057 16.5 5.79098 16.5H3.98629C3.60671 16.5 3.29871 16.808 3.29871 17.1875C3.29871 17.567 3.60671 17.875 3.98629 17.875Z" fill="#2B2B2B"/>
<path fill-rule="evenodd" clip-rule="evenodd" d="M8.19723 9.625H10.0019C10.3815 9.625 10.6895 9.317 10.6895 8.9375C10.6895 8.558 10.3815 8.25 10.0019 8.25H8.19723C7.81764 8.25 7.50964 8.558 7.50964 8.9375C7.50964 9.317 7.81764 9.625 8.19723 9.625Z" fill="#2B2B2B"/>
<path fill-rule="evenodd" clip-rule="evenodd" d="M8.19723 12.375H10.0019C10.3815 12.375 10.6895 12.067 10.6895 11.6875C10.6895 11.308 10.3815 11 10.0019 11H8.19723C7.81764 11 7.50964 11.308 7.50964 11.6875C7.50964 12.067 7.81764 12.375 8.19723 12.375Z" fill="#2B2B2B"/>
<path fill-rule="evenodd" clip-rule="evenodd" d="M8.19723 15.125H10.0019C10.3815 15.125 10.6895 14.817 10.6895 14.4375C10.6895 14.058 10.3815 13.75 10.0019 13.75H8.19723C7.81764 13.75 7.50964 14.058 7.50964 14.4375C7.50964 14.817 7.81764 15.125 8.19723 15.125Z" fill="#2B2B2B"/>
<path fill-rule="evenodd" clip-rule="evenodd" d="M8.19723 17.875H10.0019C10.3815 17.875 10.6895 17.567 10.6895 17.1875C10.6895 16.808 10.3815 16.5 10.0019 16.5H8.19723C7.81764 16.5 7.50964 16.808 7.50964 17.1875C7.50964 17.567 7.81764 17.875 8.19723 17.875Z" fill="#2B2B2B"/>
<path fill-rule="evenodd" clip-rule="evenodd" d="M12.4082 9.625H14.2129C14.5924 9.625 14.9004 9.317 14.9004 8.9375C14.9004 8.558 14.5924 8.25 14.2129 8.25H12.4082C12.0286 8.25 11.7206 8.558 11.7206 8.9375C11.7206 9.317 12.0286 9.625 12.4082 9.625Z" fill="#2B2B2B"/>
<path fill-rule="evenodd" clip-rule="evenodd" d="M16.6191 9.625H18.4238C18.8034 9.625 19.1114 9.317 19.1114 8.9375C19.1114 8.558 18.8034 8.25 18.4238 8.25H16.6191C16.2395 8.25 15.9315 8.558 15.9315 8.9375C15.9315 9.317 16.2395 9.625 16.6191 9.625Z" fill="#2B2B2B"/>
<path fill-rule="evenodd" clip-rule="evenodd" d="M16.705 11.6875C14.0492 11.6875 11.8925 13.8442 11.8925 16.5C11.8925 19.1558 14.0492 21.3125 16.705 21.3125C19.3608 21.3125 21.5175 19.1558 21.5175 16.5C21.5175 13.8442 19.3608 11.6875 16.705 11.6875ZM16.705 13.0625C18.6025 13.0625 20.1425 14.6025 20.1425 16.5C20.1425 18.3975 18.6025 19.9375 16.705 19.9375C14.8075 19.9375 13.2675 18.3975 13.2675 16.5C13.2675 14.6025 14.8075 13.0625 16.705 13.0625Z" fill="#2B2B2B"/>
<path fill-rule="evenodd" clip-rule="evenodd" d="M17.3067 16.3037L18.8052 17.3029C19.121 17.5135 19.2064 17.9406 18.9959 18.2564C18.7853 18.5722 18.3582 18.6577 18.0424 18.4471L16.2377 17.244C16.0464 17.1165 15.9315 16.9017 15.9315 16.6719V14.2657C15.9315 13.8861 16.2395 13.5781 16.6191 13.5781C16.9987 13.5781 17.3067 13.8861 17.3067 14.2657V16.3037Z" fill="#2B2B2B"/>
<path fill-rule="evenodd" clip-rule="evenodd" d="M21.5313 11C21.5313 11.3795 21.2233 11.6875 20.8438 11.6875C20.465 11.6875 20.1563 11.3795 20.1563 11V6.875H2.28128V19.9375H11.2188C11.5983 19.9375 11.9063 20.2455 11.9063 20.625C11.9063 21.0045 11.5983 21.3125 11.2188 21.3125H1.59378C1.21428 21.3125 0.906281 21.0045 0.906281 20.625V2.75C0.906281 2.3705 1.21428 2.0625 1.59378 2.0625H3.65628V1.375C3.65628 0.9955 3.96497 0.6875 4.34378 0.6875C4.72328 0.6875 5.03128 0.9955 5.03128 1.375V2.0625H10.5313V1.375C10.5313 0.9955 10.84 0.6875 11.2188 0.6875C11.5983 0.6875 11.9063 0.9955 11.9063 1.375V2.0625H17.4063V1.375C17.4063 0.9955 17.715 0.6875 18.0938 0.6875C18.4733 0.6875 18.7813 0.9955 18.7813 1.375V2.0625H20.8438C21.224 2.0625 21.5313 2.3705 21.5313 2.75V11ZM18.7813 3.4375V4.125C18.7813 4.5045 18.4733 4.8125 18.0938 4.8125C17.715 4.8125 17.4063 4.5045 17.4063 4.125V3.4375H11.9063V4.125C11.9063 4.5045 11.5983 4.8125 11.2188 4.8125C10.84 4.8125 10.5313 4.5045 10.5313 4.125V3.4375H5.03128V4.125C5.03128 4.5045 4.72328 4.8125 4.34378 4.8125C3.96497 4.8125 3.65628 4.5045 3.65628 4.125V3.4375H2.28128V5.5H20.1563V3.4375H18.7813Z" fill="#2B2B2B"/>
</svg>
