<svg width="20" height="20" viewBox="0 0 20 20" fill="none" xmlns="http://www.w3.org/2000/svg">
    <path fill-rule="evenodd" clip-rule="evenodd"
        d="M2.33433 2.34891C2.54846 2.13465 2.83885 2.01429 3.14163 2.01429C3.44441 2.01429 3.7348 2.13465 3.94893 2.34891L9.99282 8.39803L16.0367 2.34891C16.1421 2.23975 16.2681 2.15268 16.4074 2.09279C16.5467 2.03289 16.6966 2.00137 16.8482 2.00004C16.9998 1.99873 17.1502 2.02764 17.2905 2.08511C17.4309 2.14257 17.5583 2.22744 17.6655 2.33474C17.7727 2.44204 17.8576 2.56964 17.915 2.7101C17.9723 2.85056 18.0012 3.00105 18 3.15279C17.9986 3.30454 17.9671 3.45451 17.9072 3.59394C17.8474 3.73337 17.7604 3.85948 17.6513 3.9649L11.6074 10.014L17.6513 16.0632C17.8594 16.2787 17.9745 16.5674 17.9719 16.867C17.9692 17.1667 17.8492 17.4533 17.6374 17.6652C17.4257 17.8771 17.1393 17.9973 16.8399 18C16.5405 18.0026 16.2521 17.8874 16.0367 17.6792L9.99282 11.63L3.94893 17.6792C3.73358 17.8874 3.44514 18.0026 3.14574 18C2.84634 17.9973 2.55995 17.8771 2.34824 17.6652C2.13652 17.4533 2.01643 17.1667 2.01384 16.867C2.01124 16.5674 2.12633 16.2787 2.33433 16.0632L8.37822 10.014L2.33433 3.9649C2.12026 3.75059 2 3.45995 2 3.1569C2 2.85386 2.12026 2.56322 2.33433 2.34891Z"
        fill="#DC3545" />
</svg>