<svg width="24" height="24" viewBox="0 0 24 24" fill="none" xmlns="http://www.w3.org/2000/svg">
    <path fill-rule="evenodd" clip-rule="evenodd"
        d="M3.14702 16.4209C3.76756 16.4209 4.27061 16.9239 4.27061 17.5445V19.7917C4.27061 20.0896 4.38897 20.3754 4.59972 20.5861C4.81041 20.7968 5.09618 20.9152 5.39419 20.9152H18.8772C19.1752 20.9152 19.4609 20.7969 19.6717 20.5861C19.8825 20.3754 20.0008 20.0896 20.0008 19.7917V17.5445C20.0008 16.9239 20.5038 16.4209 21.1244 16.4209C21.7449 16.4209 22.2479 16.9239 22.2479 17.5445V19.7917C22.2479 20.6856 21.8929 21.543 21.2607 22.1751C20.6285 22.8072 19.7711 23.1624 18.8772 23.1624H5.39419C4.50024 23.1624 3.64284 22.8074 3.01069 22.1751C2.37858 21.543 2.02344 20.6856 2.02344 19.7917V17.5445C2.02344 16.9239 2.52648 16.4209 3.14702 16.4209Z"
        fill="#828282" />
    <path fill-rule="evenodd" clip-rule="evenodd"
        d="M5.72362 10.0088C6.16241 9.56999 6.87382 9.56999 7.31261 10.0088L12.136 14.8322L16.9595 10.0088C17.3982 9.56999 18.1097 9.56999 18.5484 10.0088C18.9873 10.4475 18.9873 11.159 18.5484 11.5978L12.9305 17.2157C12.4917 17.6544 11.7803 17.6544 11.3415 17.2157L5.72362 11.5978C5.28484 11.159 5.28484 10.4475 5.72362 10.0088Z"
        fill="#828282" />
    <path fill-rule="evenodd" clip-rule="evenodd"
        d="M12.1314 0.795898C12.752 0.795898 13.255 1.29895 13.255 1.91948V16.421C13.255 17.0416 12.752 17.5446 12.1314 17.5446C11.5108 17.5446 11.0078 17.0416 11.0078 16.421V1.91948C11.0078 1.29895 11.5108 0.795898 12.1314 0.795898Z"
        fill="#828282" />
</svg>