<svg width="36" height="36" viewBox="0 0 36 36" fill="none" xmlns="http://www.w3.org/2000/svg">
<rect width="36" height="36" rx="18" fill="black" fill-opacity="0.1"/>
<path d="M11 11C10.4477 11 10 11.4477 10 12V21C10 21.5523 10.4477 22 11 22H16.5C17.0523 22 17.5 22.4477 17.5 23C17.5 23.5523 17.0523 24 16.5 24H11C9.34315 24 8 22.6569 8 21V12C8 10.3432 9.34315 9 11 9H22C23.6569 9 25 10.3432 25 12V16C25 16.5523 24.5523 17 24 17C23.4477 17 23 16.5523 23 16V12C23 11.4477 22.5523 11 22 11H11Z" fill="#4B5563"/>
<path fill-rule="evenodd" clip-rule="evenodd" d="M18.8944 12.5528C18.725 12.214 18.3788 12 18 12C17.6212 12 17.275 12.214 17.1056 12.5528L15.7919 15.1802L15.348 14.47C15.1653 14.1776 14.8448 14 14.5 14C14.1552 14 13.8347 14.1776 13.652 14.47L11.152 18.47C10.9593 18.7783 10.9491 19.1668 11.1254 19.4848C11.3016 19.8027 11.6365 20 12 20H21C21.3466 20 21.6684 19.8205 21.8507 19.5257C22.0329 19.2309 22.0494 18.8628 21.8944 18.5528L18.8944 12.5528Z" fill="#4B5563"/>
<path d="M20 23C20 22.4477 20.4477 22 21 22H23V20C23 19.4477 23.4477 19 24 19C24.5523 19 25 19.4477 25 20V22H27C27.5523 22 28 22.4477 28 23C28 23.5523 27.5523 24 27 24H25V26C25 26.5523 24.5523 27 24 27C23.4477 27 23 26.5523 23 26V24H21C20.4477 24 20 23.5523 20 23Z" fill="#4B5563"/>
</svg>
