<svg width="57" height="57" viewBox="0 0 57 57" fill="none" xmlns="http://www.w3.org/2000/svg">
<path d="M28.3755 54.628C43.1066 54.628 55.0484 42.6862 55.0484 27.9551C55.0484 13.2241 43.1066 1.28223 28.3755 1.28223C13.6445 1.28223 1.70264 13.2241 1.70264 27.9551C1.70264 42.6862 13.6445 54.628 28.3755 54.628Z" stroke="black" stroke-opacity="0.8" stroke-width="1.96491"/>
<path d="M17.9326 40.0222L35.2937 15.595H38.0184L20.5525 40.0222H17.9326ZM34.4204 40.5805C33.3724 40.5805 32.441 40.3362 31.6259 39.8477C30.8341 39.3591 30.2053 38.6844 29.7396 37.8237C29.2971 36.963 29.0759 35.9858 29.0759 34.8925C29.0759 33.7758 29.2971 32.7986 29.7396 31.9612C30.2053 31.1004 30.8341 30.4257 31.6259 29.9372C32.441 29.4487 33.3724 29.2044 34.4204 29.2044C35.4684 29.2044 36.3883 29.4487 37.18 29.9372C37.9951 30.4257 38.6239 31.1004 39.0664 31.9612C39.5321 32.7986 39.765 33.7758 39.765 34.8925C39.765 35.9858 39.5321 36.963 39.0664 37.8237C38.6239 38.6844 37.9951 39.3591 37.18 39.8477C36.3883 40.3362 35.4684 40.5805 34.4204 40.5805ZM34.4204 38.6961C35.3753 38.6961 36.1553 38.3355 36.7608 37.6143C37.3663 36.8931 37.6691 35.9858 37.6691 34.8925C37.6691 33.799 37.3663 32.8918 36.7608 32.1706C36.1553 31.4493 35.3753 31.0888 34.4204 31.0888C33.489 31.0888 32.7088 31.4493 32.08 32.1706C31.4745 32.8918 31.1717 33.799 31.1717 34.8925C31.1717 35.9858 31.4745 36.8931 32.08 37.6143C32.7088 38.3355 33.489 38.6961 34.4204 38.6961ZM21.5306 26.4127C20.4826 26.4127 19.5511 26.1684 18.7361 25.6799C17.9442 25.1914 17.3155 24.5167 16.8498 23.6559C16.4073 22.7952 16.186 21.818 16.186 20.7246C16.186 19.608 16.4073 18.6309 16.8498 17.7934C17.3155 16.9327 17.9442 16.258 18.7361 15.7694C19.5511 15.2809 20.4826 15.0366 21.5306 15.0366C22.5786 15.0366 23.4985 15.2809 24.2902 15.7694C25.1053 16.258 25.734 16.9327 26.1765 17.7934C26.6423 18.6309 26.8752 19.608 26.8752 20.7246C26.8752 21.818 26.6423 22.7952 26.1765 23.6559C25.734 24.5167 25.1053 25.1914 24.2902 25.6799C23.4985 26.1684 22.5786 26.4127 21.5306 26.4127ZM21.5306 24.5283C22.4854 24.5283 23.2655 24.1678 23.871 23.4465C24.4765 22.7253 24.7793 21.818 24.7793 20.7246C24.7793 19.6313 24.4765 18.7356 23.871 18.0376C23.2655 17.3165 22.4854 16.9559 21.5306 16.9559C20.5991 16.9559 19.819 17.3165 19.1902 18.0376C18.5847 18.7356 18.2819 19.6313 18.2819 20.7246C18.2819 21.818 18.5847 22.7253 19.1902 23.4465C19.819 24.1678 20.5991 24.5283 21.5306 24.5283Z" fill="black" fill-opacity="0.8"/>
</svg>
