<svg width="74" height="74" viewBox="0 0 74 74" fill="none" xmlns="http://www.w3.org/2000/svg">
<path fill-rule="evenodd" clip-rule="evenodd" d="M39.7557 4.68774C27.5643 4.68774 17.6811 14.5709 17.6811 26.7623C17.6811 31.7633 19.3425 36.3724 22.1441 40.073C22.592 40.6648 22.4755 41.5076 21.8838 41.9555C21.2921 42.4034 20.4493 42.2869 20.0014 41.6952C16.8586 37.5438 14.9936 32.3689 14.9936 26.7623C14.9936 13.0867 26.08 2.00024 39.7557 2.00024C53.4314 2.00024 64.5178 13.0867 64.5178 26.7623C64.5178 32.1195 62.8152 37.0829 59.9214 41.1358C59.4902 41.7397 58.651 41.8798 58.047 41.4485C57.443 41.0173 57.303 40.1781 57.7342 39.5741C60.3132 35.9619 61.8303 31.5413 61.8303 26.7623C61.8303 14.5709 51.9471 4.68774 39.7557 4.68774ZM31.9238 15.8313C30.2677 15.8313 28.9251 17.1738 28.9251 18.8299C28.9251 20.4861 30.2677 21.8286 31.9238 21.8286C33.58 21.8286 34.9225 20.4861 34.9225 18.8299C34.9225 17.1738 33.58 15.8313 31.9238 15.8313ZM26.2376 18.8299C26.2376 15.6896 28.7834 13.1438 31.9238 13.1438C35.0642 13.1438 37.61 15.6896 37.61 18.8299C37.61 21.9703 35.0642 24.5161 31.9238 24.5161C28.7834 24.5161 26.2376 21.9703 26.2376 18.8299ZM48.8751 13.5163C49.4807 13.9451 49.6241 14.7837 49.1953 15.3894L31.9926 39.6883C31.5638 40.294 30.7252 40.4373 30.1195 40.0085C29.5138 39.5797 29.3704 38.7411 29.7992 38.1354L47.0019 13.8366C47.4307 13.2309 48.2693 13.0875 48.8751 13.5163ZM47.3546 32.207C45.6984 32.207 44.3559 33.5495 44.3559 35.2057C44.3559 36.8618 45.6984 38.2044 47.3546 38.2044C49.0107 38.2044 50.3532 36.8618 50.3532 35.2057C50.3532 33.5495 49.0107 32.207 47.3546 32.207ZM41.6684 35.2057C41.6684 32.0652 44.2142 29.5195 47.3546 29.5195C50.4949 29.5195 53.0407 32.0652 53.0407 35.2057C53.0407 38.3461 50.4949 40.8919 47.3546 40.8919C44.2142 40.8919 41.6684 38.3461 41.6684 35.2057ZM70.1992 44.6675C69.358 43.4821 67.7717 43.0985 66.4817 43.7686L52.6513 50.9531C51.9928 51.2952 51.1815 51.0387 50.8394 50.3801C50.4973 49.7215 50.7538 48.9103 51.4124 48.5682L65.2427 41.3837C67.7226 40.0952 70.7729 40.8328 72.3908 43.1121C74.3198 45.8302 73.4618 49.6212 70.5505 51.2442L45.2335 65.3584C43.433 66.3622 41.4059 66.8889 39.3446 66.8889H18.9621C17.1552 66.8889 15.4243 67.6172 14.1604 68.9086L11.4186 71.7096C10.8995 72.2404 10.0487 72.2491 9.51836 71.7305C8.98799 71.2111 8.97885 70.3605 9.49794 69.8297L12.2398 67.0287C14.0092 65.2207 16.4324 64.2014 18.9621 64.2014H39.3446C40.9478 64.2014 42.5245 63.7916 43.9248 63.0109L69.2424 48.8968C70.7561 48.0527 71.2023 46.0811 70.1992 44.6675ZM20.4824 47.8718C17.6598 47.5104 14.8248 48.4183 12.76 50.3618L3.26475 59.2986C2.7243 59.8073 1.87391 59.7815 1.36523 59.2411C0.856621 58.7007 0.882353 57.8503 1.42281 57.3416L10.918 48.4048C13.5753 45.9037 17.214 44.7439 20.8238 45.2061C25.2261 45.7699 30.1515 46.3581 31.7394 46.4169C33.4399 46.4799 38.8874 46.4711 43.5028 46.4469C46.7974 46.4296 49.4851 49.0927 49.4851 52.3919C49.4851 55.6713 46.8266 58.3297 43.5472 58.3297H30.2446C29.5025 58.3297 28.9009 57.7281 28.9009 56.986C28.9009 56.2439 29.5025 55.6422 30.2446 55.6422H43.5472C45.3423 55.6422 46.7976 54.187 46.7976 52.3919C46.7976 50.587 45.3263 49.1249 43.5169 49.1344C38.9343 49.1583 33.4125 49.1682 31.64 49.1026C29.8983 49.0381 24.8181 48.4271 20.4824 47.8718Z" fill="#202A4E"/>
</svg>
