<svg width="74" height="74" viewBox="0 0 74 74" fill="none" xmlns="http://www.w3.org/2000/svg">
<path d="M73.3273 29.3859L45.297 14.0253C42.8303 9.9889 38.2333 7.29799 33.1879 7.29799H17.8273V1.13132C17.8273 0.682837 17.603 0.346474 17.2667 0.122231C16.9303 -0.102011 16.4818 0.01011 16.1455 0.234352L0.448485 11.5586C0.224242 11.7828 0 12.1192 0 12.4556C0 12.7919 0.224242 13.1283 0.448485 13.3525L16.0333 24.6768C16.3697 24.901 16.8182 25.0131 17.1545 24.7889C17.4909 24.5647 17.7152 24.2283 17.7152 23.7798V17.7253H30.2727C31.8424 17.7253 33.1879 18.1737 34.4212 18.8465L15.3606 28.9374C15.0242 29.1616 14.8 29.6101 14.8 29.9465V54.9495C14.8 55.2859 15.0242 55.7344 15.3606 55.8465L43.7273 73.7859C44.0636 74.0101 44.5121 74.0101 44.8485 73.7859L73.4394 58.5374C73.7758 58.3131 74 57.9768 74 57.5283V30.5071C74 30.0586 73.6636 29.6101 73.3273 29.3859ZM70.5242 30.5071L63.0121 34.6556L46.3061 25.4616C46.8667 23.8919 47.203 22.098 47.0909 20.3041C47.0909 19.295 46.8667 18.398 46.6424 17.501L70.5242 30.5071ZM56.6212 38.5798L42.3818 30.8434C43.503 29.8344 44.5121 28.7131 45.297 27.3677L61.8909 36.4495V44.6344L57.1818 47.2131V39.5889C57.1818 39.1404 56.9576 38.8041 56.6212 38.5798ZM16.7061 15.595C16.0333 15.595 15.5848 16.0434 15.5848 16.7162V21.6495L3.02727 12.4556L15.5848 3.37375V8.53132C15.5848 9.20405 16.0333 9.65253 16.7061 9.65253H33.0758C39.3545 9.65253 44.6242 14.4737 44.8485 20.4162C44.9606 24.5647 42.8303 28.3768 39.4667 30.395C40.3636 28.7131 40.8121 26.8071 40.7 24.901C40.3636 19.7434 35.7667 15.595 30.2727 15.595H16.7061ZM38.4576 25.0131C38.5697 26.2465 38.3455 27.3677 37.897 28.4889L29.6 24.004L36.3273 20.4162C37.5606 21.6495 38.3455 23.2192 38.4576 25.0131ZM27.2455 25.2374L36.7758 30.395C36.3273 30.9556 35.7667 31.5162 35.0939 31.9647C34.6455 32.301 34.5333 32.8616 34.6455 33.3101C34.8697 33.7586 35.3182 34.095 35.8788 33.9828C37.5606 33.7586 39.1303 33.198 40.4758 32.4131L53.8182 39.701L44.4 44.8586L18.2758 30.0586L27.2455 25.2374ZM17.0424 54.3889V31.9647L43.1667 46.7647V70.8707L17.0424 54.3889ZM45.4091 70.9828V46.7647L54.9394 41.495V49.1192C54.9394 49.5677 55.1636 49.9041 55.5 50.1283C55.8364 50.3525 56.2848 50.3525 56.6212 50.1283L63.5727 46.3162C63.9091 46.0919 64.1333 45.7556 64.1333 45.3071V36.5616L71.7576 32.4131V57.0798L45.4091 70.9828Z" fill="#202A4E"/>
</svg>
