<svg width="56" height="57" viewBox="0 0 56 57" fill="none" xmlns="http://www.w3.org/2000/svg">
<g clip-path="url(#clip0_77_1255)">
<path d="M48.7647 28.3032H46.9544C46.9572 31.9554 45.9055 35.5309 43.9256 38.6C41.9457 41.6691 39.1219 44.1013 35.7932 45.6044C32.4646 47.1075 28.7727 47.6177 25.1612 47.0735C21.5497 46.5294 18.172 44.9541 15.4341 42.537C12.6961 40.1198 10.7142 36.9635 9.72646 33.4473C8.73875 29.9311 8.78723 26.2045 9.86607 22.7152C10.9449 19.2259 13.0082 16.1222 15.8082 13.7771C18.6081 11.432 22.0256 9.9451 25.65 9.49509L23.7388 11.4063L25.0161 12.6836L29.2738 8.42593L25.0161 4.16821L23.7388 5.44553L25.9134 7.62012C21.9138 8.02197 18.1167 9.57554 14.9824 12.0924C11.8482 14.6094 9.51152 17.9815 8.25564 21.8C6.99977 25.6185 6.87867 29.7194 7.90704 33.6053C8.93542 37.4913 11.0691 40.9954 14.0493 43.6929C17.0296 46.3904 20.7284 48.1653 24.6973 48.8024C28.6662 49.4396 32.7347 48.9116 36.4095 47.2825C40.0844 45.6534 43.2076 42.9932 45.4007 39.6244C47.5937 36.2556 48.7622 32.3229 48.7647 28.3032Z" fill="#2B2B2B"/>
<path d="M21.6415 1.01583L23.4124 0.662598L23.7656 2.43349L21.9947 2.78515L21.6415 1.01583Z" fill="#2B2B2B"/>
<path d="M16.436 2.77894L18.1044 2.08667L18.7951 3.75506L17.1267 4.44734L16.436 2.77894Z" fill="#2B2B2B"/>
<path d="M11.6832 5.52905L13.1845 4.52612L14.189 6.02894L12.6877 7.03186L11.6832 5.52905Z" fill="#2B2B2B"/>
<path d="M7.55322 9.14328L8.83053 7.86597L10.1078 9.14328L8.83053 10.4206L7.55322 9.14328Z" fill="#2B2B2B"/>
<path d="M25.2811 16.5597V17.5279C23.7768 17.7467 22.4015 18.4995 21.4064 19.6486C20.4112 20.7978 19.8628 22.2666 19.8612 23.7867V24.6903C19.8637 26.3662 20.5306 27.9728 21.7156 29.1578C22.9007 30.3429 24.5072 31.0097 26.1831 31.0122H29.7959C30.0355 31.0122 30.2653 31.1075 30.4348 31.2769C30.6043 31.4464 30.6995 31.6762 30.6995 31.9158V32.8194C30.6995 33.059 30.6043 33.2889 30.4348 33.4583C30.2653 33.6278 30.0355 33.723 29.7959 33.723H26.1831C25.9435 33.723 25.7136 33.6278 25.5442 33.4583C25.3747 33.2889 25.2796 33.059 25.2796 32.8194V31.9158H19.8612V32.8194C19.8631 34.3394 20.4117 35.8081 21.4067 36.9572C22.4018 38.1062 23.777 38.8591 25.2811 39.0782V40.0449C25.2811 40.7636 25.5666 41.4529 26.0749 41.9611C26.5831 42.4694 27.2724 42.7549 27.9911 42.7549C28.7098 42.7549 29.3991 42.4694 29.9073 41.9611C30.4155 41.4529 30.701 40.7636 30.701 40.0449V39.0735C32.2053 38.8547 33.5807 38.1019 34.5758 36.9528C35.5709 35.8036 36.1194 34.3348 36.121 32.8147V31.9111C36.1185 30.2352 35.4516 28.6286 34.2665 27.4436C33.0815 26.2585 31.4749 25.5917 29.799 25.5892H26.1863C26.0676 25.5892 25.9501 25.5658 25.8405 25.5204C25.7309 25.475 25.6313 25.4084 25.5474 25.3245C25.4635 25.2406 25.3969 25.141 25.3515 25.0314C25.3061 24.9218 25.2827 24.8043 25.2827 24.6856V23.782C25.2827 23.6633 25.3061 23.5458 25.3515 23.4362C25.3969 23.3266 25.4635 23.227 25.5474 23.1431C25.6313 23.0592 25.7309 22.9926 25.8405 22.9472C25.9501 22.9018 26.0676 22.8784 26.1863 22.8784H29.7959C30.0355 22.8784 30.2653 22.9736 30.4348 23.1431C30.6043 23.3125 30.6995 23.5424 30.6995 23.782V24.6856H36.1194V23.782C36.1178 22.2619 35.5693 20.7931 34.5742 19.6439C33.5791 18.4948 32.2038 17.742 30.6995 17.5232V16.5549C30.6995 15.8362 30.4139 15.1469 29.9057 14.6387C29.3975 14.1305 28.7082 13.845 27.9895 13.845C27.2708 13.845 26.5815 14.1305 26.0733 14.6387C25.565 15.1469 25.2796 15.8362 25.2796 16.5549L25.2811 16.5597ZM28.8939 16.5597V19.2688H29.7974C30.838 19.27 31.8464 19.6301 32.6525 20.2882C33.4585 20.9463 34.013 21.8623 34.2223 22.8816H32.3521C32.1647 22.3536 31.8186 21.8966 31.3612 21.573C30.9039 21.2495 30.3577 21.0753 29.7974 21.0744H26.1847C25.4666 21.0757 24.7782 21.3615 24.2704 21.8693C23.7626 22.3771 23.4768 23.0654 23.4755 23.7836V24.6872C23.4764 25.4054 23.7621 26.094 24.27 26.6019C24.7778 27.1098 25.4664 27.3955 26.1847 27.3963H29.7959C30.9933 27.3976 32.1413 27.8738 32.988 28.7205C33.8347 29.5672 34.311 30.7153 34.3122 31.9127V32.8163C34.3126 34.0148 33.8371 35.1644 32.9902 36.0125C32.1434 36.8605 30.9944 37.3376 29.7959 37.3389H28.8923V40.0481C28.8923 40.1667 28.8689 40.2842 28.8235 40.3939C28.7781 40.5035 28.7115 40.6031 28.6276 40.687C28.5437 40.7709 28.4441 40.8375 28.3345 40.8829C28.2249 40.9283 28.1074 40.9516 27.9887 40.9516C27.8701 40.9516 27.7526 40.9283 27.6429 40.8829C27.5333 40.8375 27.4337 40.7709 27.3498 40.687C27.2659 40.6031 27.1993 40.5035 27.1539 40.3939C27.1085 40.2842 27.0851 40.1667 27.0851 40.0481V37.3389H26.1815C25.1409 37.3377 24.1326 36.9776 23.3266 36.3195C22.5205 35.6614 21.966 34.7455 21.7567 33.7261H23.6269C23.8143 34.2541 24.1604 34.7112 24.6177 35.0347C25.0751 35.3582 25.6213 35.5324 26.1815 35.5333H29.7959C30.5141 35.5325 31.2027 35.2468 31.7106 34.7389C32.2185 34.231 32.5042 33.5424 32.5051 32.8241V31.9206C32.5038 31.2024 32.218 30.5141 31.7102 30.0063C31.2024 29.4985 30.514 29.2126 29.7959 29.2114H26.1831C24.9857 29.2101 23.8377 28.7339 22.991 27.8872C22.1443 27.0405 21.6681 25.8925 21.6668 24.6951V23.7915C21.6681 22.5941 22.1443 21.446 22.991 20.5993C23.8377 19.7526 24.9857 19.2764 26.1831 19.2751H27.0867V16.566C27.0867 16.3263 27.1819 16.0965 27.3514 15.927C27.5208 15.7576 27.7506 15.6624 27.9903 15.6624C28.2299 15.6624 28.4598 15.7576 28.6292 15.927C28.7987 16.0965 28.8939 16.3263 28.8939 16.566V16.5597Z" fill="#2B2B2B"/>
<path d="M7.7172 11.7137L6.32004 10.5688C2.09212 15.7357 -0.1506 22.2432 -0.00371467 28.9178C0.14317 35.5924 2.67 41.9949 7.12112 46.9707L8.46624 45.766C4.30252 41.1112 1.93888 35.122 1.80154 28.8782C1.6642 22.6344 3.76219 16.547 7.7172 11.7137Z" fill="#2B2B2B"/>
<path d="M32.2164 54.1679L33.9874 53.8147L34.3406 55.5856L32.5697 55.9388L32.2164 54.1679Z" fill="#2B2B2B"/>
<path d="M37.1775 52.848L38.8459 52.1558L39.5366 53.8242L37.8682 54.5149L37.1775 52.848Z" fill="#2B2B2B"/>
<path d="M41.7899 50.5821L43.2911 49.5791L44.2957 51.0803L42.7944 52.0833L41.7899 50.5821Z" fill="#2B2B2B"/>
<path d="M45.8727 47.4643L47.15 46.187L48.4273 47.4643L47.15 48.7416L45.8727 47.4643Z" fill="#2B2B2B"/>
<path d="M48.8593 9.63525L47.5142 10.84C51.6776 15.4949 54.041 21.4841 54.1784 27.7278C54.3157 33.9715 52.2179 40.0588 48.2632 44.8923L49.6604 46.0371C53.888 40.8701 56.1305 34.3627 55.9836 27.6882C55.8367 21.0137 53.3101 14.6113 48.8593 9.63525Z" fill="#2B2B2B"/>
</g>
<defs>
<clipPath id="clip0_77_1255">
<rect width="56" height="56" fill="white" transform="translate(-0.00976562 0.299805)"/>
</clipPath>
</defs>
</svg>
