<svg width="57" height="57" viewBox="0 0 57 57" fill="none" xmlns="http://www.w3.org/2000/svg">
<path d="M28.5054 9.48438H28.8335L29.353 9.53906L29.8452 9.64844L30.4194 9.86719L30.8843 10.1133L31.3218 10.4141L31.6226 10.6602V10.7148L31.7319 10.7695L32.0601 11.125L32.4155 11.6172L32.771 12.3008L32.9624 12.875L33.0444 13.2852L33.0718 13.5039V14.2969L33.0171 14.707L32.8804 15.2266L32.689 15.6914L32.4155 16.1836L32.1421 16.5664L31.7866 16.9766L31.5679 17.1953L31.3491 17.3867L30.8569 17.7695L30.3647 18.0703L29.9819 18.2891L29.5718 18.5078L29.0522 18.7266L28.3687 18.9727L27.3569 19.3281L27.3296 19.3555H28.8062L36.4624 19.3828L36.8179 19.4375L37.146 19.5742L37.4194 19.7383L37.7202 20.0117L37.9663 20.3945L38.0757 20.6406L38.1304 20.832L38.1577 21.0508V26.7109L38.3218 26.6836H45.6226L46.0327 26.7383L46.3608 26.9023L46.5522 27.0664L46.8257 27.4219L47.0991 27.832L47.4819 28.2969L47.7827 28.6797L48.1382 29.1172L48.439 29.5L48.7944 29.9375L49.0952 30.3203L49.4507 30.7578L49.7241 31.1133L50.0796 31.5508L50.3804 31.9336L50.7632 32.3984L50.9819 32.7266L51.0366 32.8906V41.9141L50.9546 42.1328L50.7085 42.4062L50.4624 42.5156L50.2983 42.543L48.5483 42.5703L48.4116 43.1172L48.2202 43.6641L47.9194 44.2383L47.6187 44.6758L47.2905 45.0586L47.0171 45.332L46.6343 45.6328L46.2241 45.9062L45.5952 46.207L45.103 46.3711L44.6108 46.4805L44.2007 46.5352H43.4077L42.8335 46.4531L42.314 46.3164L41.9038 46.1523L41.4663 45.9336L41.1108 45.7148L40.7554 45.4414L40.3452 45.0586L40.0718 44.7578L39.7437 44.293L39.4702 43.8008L39.2515 43.2539L39.0874 42.5977V42.543L21.6694 42.5703L21.5054 43.1992L21.2866 43.7461L21.0132 44.2656L20.7671 44.6211L20.521 44.9219L20.1655 45.3047L19.7827 45.6055L19.5093 45.7969L19.0171 46.0703L18.5796 46.2617L18.0054 46.4258L17.3218 46.5352H16.5015L15.8179 46.4258L15.271 46.2617L14.7241 46.0156L14.3413 45.7969L14.0405 45.5781L13.7397 45.332L13.2749 44.8672L12.9468 44.4297L12.7007 44.0195L12.4546 43.5L12.2905 42.9805L12.2085 42.625V42.543H7.97021L7.64209 42.4883L7.28662 42.3516L6.98584 42.1602L6.82178 42.0234L6.60303 41.75L6.38428 41.3125L6.30225 41.0391L6.2749 40.7383V21.1328L6.35693 20.668L6.49365 20.3398L6.68506 20.0664L6.84912 19.875L7.12256 19.6562L7.45068 19.4922L7.72412 19.4102L7.94287 19.3828L16.939 19.3555L16.6108 19.2188L15.353 18.7812L14.6147 18.4531L13.9858 18.125L13.3296 17.6875L12.9468 17.3867L12.6733 17.1406L12.2905 16.7578L12.0171 16.4023L11.7437 15.9922L11.4702 15.418L11.3335 15.0078L11.2241 14.5156L11.1968 14.3242V13.5312L11.2788 13.0117L11.4702 12.3828L11.7437 11.8086L12.0718 11.3164L12.3726 10.9609L12.4819 10.8242L12.7007 10.6328L13.0288 10.3594L13.439 10.0859L13.8765 9.86719L14.2866 9.70312L14.7788 9.56641L15.1343 9.51172H16.146L16.7202 9.62109L17.3218 9.83984L17.7866 10.0859L18.1147 10.3047L18.4976 10.6055L18.8804 10.9609L19.0718 11.1797L19.3452 11.5078L19.646 11.9453L19.8647 12.3008L20.0288 12.5742L20.3296 13.2031L20.603 13.8594L21.0679 15.1172L21.5874 16.5117L22.0796 17.8516L22.1343 17.9883L22.189 17.9062L22.4624 17.1406L22.9546 15.8008L23.3101 14.8438L23.6929 13.8047L24.021 13.0391L24.2944 12.5195L24.5679 12.0547L24.7866 11.7266L25.0601 11.3711L25.2241 11.1523H25.2788L25.3335 11.043L25.771 10.6055L26.2358 10.25L26.646 10.0039L27.0835 9.78516L27.5757 9.62109L28.1499 9.51172L28.5054 9.48438ZM15.6538 11.043L15.1069 11.0977L14.6968 11.207L14.2593 11.4258L13.9312 11.6445L13.603 11.9453L13.3296 12.2461L13.0562 12.6836L12.8921 13.0664L12.7827 13.4766L12.7554 13.6953V14.1328L12.8374 14.5703L13.0015 15.0078L13.2202 15.3906L13.521 15.7734L13.9312 16.1836L14.3687 16.5117L14.8062 16.7852L15.4351 17.1133L15.8726 17.3047L20.5757 18.9453L20.7124 19H20.7944L20.7397 18.7539L20.1108 17.0312L19.6733 15.8555L19.1812 14.5156L18.9077 13.8594L18.689 13.4219L18.4429 12.957L18.1147 12.4922L17.8687 12.1914L17.6499 11.9453L17.4312 11.7539L17.021 11.4531L16.5015 11.207L16.146 11.0977L15.6538 11.043ZM28.6694 11.043L28.1499 11.0977L27.6851 11.2344L27.2202 11.4805L26.8647 11.7539L26.5366 12.0547L26.2632 12.3555L25.9351 12.8203L25.689 13.2305L25.4155 13.75L25.1421 14.4062L24.7593 15.4453L24.2671 16.7852L23.9663 17.5781L23.7749 18.125L23.4741 18.918L23.4468 19.0273L24.2671 18.7539L25.5796 18.2891L27.0835 17.7695L27.8491 17.4961L28.5874 17.2227L29.271 16.8945L29.6538 16.6758L30.0913 16.375L30.4468 16.0742L30.8569 15.6641L31.1304 15.2812L31.3491 14.8438L31.4858 14.3789L31.5132 14.1875V13.6406L31.4312 13.2031L31.2124 12.6562L30.939 12.2188L30.6108 11.8633L30.3647 11.6445L29.9819 11.3984L29.5718 11.207L29.1616 11.0977L28.6694 11.043ZM8.07959 20.9414L7.88818 21.0234L7.86084 21.1602V40.8203L7.99756 40.957L8.16162 40.9844H12.1538L12.2085 40.957L12.3999 40.2461L12.6733 39.5898L12.9468 39.125L13.2749 38.6875L13.3022 38.6055H13.3569L13.5483 38.3867L13.7397 38.1953L14.1226 37.8945L14.5327 37.6211L15.2163 37.293L15.7632 37.1289L16.3374 37.0195L16.6655 36.9922H17.2124L17.8687 37.0742L18.5522 37.2656L19.0444 37.4844L19.5366 37.7578L19.8647 38.0039L20.2202 38.3047L20.4937 38.5781L20.8491 39.043L21.0679 39.3984L21.2866 39.8359L21.4233 40.1641L21.6147 40.8477L21.6421 40.957L21.6968 40.9844H36.5718L36.5991 38.6875V22.2539L36.5718 21.1055L36.4624 20.9688L36.3804 20.9414H23.8569L23.8843 21.0234L24.103 21.2148L24.4312 21.5156L24.7046 21.7344L25.1421 22.0898L25.6343 22.4453L26.2085 22.8281L26.7554 23.1562L27.3569 23.4844L28.0952 23.8398L29.0249 24.2227L30.0366 24.5508L31.1304 24.8242L31.814 24.9609L32.7163 25.125L33.0444 25.2891L33.2085 25.5352L33.2632 25.6719V26.0547L33.1265 26.3281L32.9077 26.5195L32.689 26.6016H32.3335L31.3491 26.4375L30.5835 26.2734L29.9272 26.1094L28.8608 25.7812L27.9858 25.4531L27.2476 25.125L26.564 24.7969L26.0171 24.4961L25.5522 24.2227L24.8687 23.7852L24.4312 23.457L24.1304 23.2383L23.6929 22.8828L23.3921 22.6367L23.064 22.3359L22.8452 22.1445L22.189 21.4883L22.0796 21.5156L21.396 22.1992L21.1772 22.3906L20.9038 22.6367L20.603 22.8828L20.1929 23.2109L19.6733 23.5938L18.853 24.1406L18.4429 24.3867L17.7593 24.7695L16.9937 25.1523L16.0913 25.5352L15.1616 25.8633L14.5327 26.0547L13.6851 26.2734L12.7554 26.4648L12.1265 26.5742L11.9077 26.6016H11.5522L11.2788 26.4648L11.1147 26.2734L11.0054 26.0273V25.6992L11.1147 25.4258L11.2241 25.2891L11.5522 25.125L12.9194 24.8789L13.8491 24.6602L14.9155 24.332L15.6538 24.0586L16.3374 23.7578L17.021 23.4297L17.6226 23.1016L18.1968 22.7461L18.7983 22.3359L19.2632 21.9805L19.7007 21.625L20.0835 21.2969L20.439 20.9688V20.9414H8.07959ZM38.1577 28.2695V40.957L38.2124 40.9844H39.0601L39.1421 40.793L39.3335 40.1094L39.5522 39.6172L39.7983 39.1797L40.0718 38.7969L40.0991 38.7148H40.1538L40.3452 38.4961L40.5093 38.3047L40.728 38.1133L41.0835 37.8398L41.5757 37.5391L42.0405 37.3203L42.5327 37.1562L43.0249 37.0469L43.5718 36.9922H44.064L44.5835 37.0469L45.0757 37.1562L45.5679 37.3203L46.1968 37.6211L46.6069 37.8945L46.9897 38.1953L47.4546 38.6602L47.7554 39.0703L48.0015 39.4805L48.2202 39.918L48.439 40.5742L48.521 40.957L48.7124 40.9844H49.4507L49.478 40.957V33.3281L49.2593 33.0273L48.9038 32.5898L48.603 32.207L48.2476 31.7695L47.9468 31.3867L47.5913 30.9492L47.3726 30.6758L47.0718 30.293L46.7163 29.8555L46.4976 29.582L46.1968 29.1992L45.8413 28.7617L45.5132 28.2695H38.1577ZM16.8569 38.5234L16.3101 38.5781L15.8999 38.6875L15.4351 38.8789L15.0522 39.125L14.7515 39.3711L14.4507 39.6719L14.1772 40.0547L13.9585 40.4922L13.7944 40.9297L13.7124 41.4219V42.1328L13.8218 42.6797L14.0405 43.2266L14.314 43.6641L14.6147 44.0195L14.9155 44.293L15.189 44.4844L15.6538 44.7305L16.1187 44.8945L16.3921 44.9492L16.6655 44.9766H17.2124L17.7046 44.8945L18.1968 44.7305L18.6616 44.4844L18.9897 44.2383L19.3179 43.9375L19.5913 43.582L19.8374 43.1719L20.0015 42.7617L20.1382 42.1328V41.4219L20.0288 40.875L19.8647 40.4102L19.5913 39.918L19.3452 39.6172L18.9897 39.2617L18.6343 39.0156L18.1694 38.7695L17.6772 38.6055L17.3218 38.5508L16.8569 38.5234ZM43.7358 38.5234L43.2163 38.5781L42.7788 38.6875L42.3413 38.8789L42.0132 39.0703L41.6304 39.3711L41.3843 39.6172L41.1382 39.9453L40.9194 40.3281L40.7554 40.7109L40.646 41.1211L40.5913 41.4492V42.0781L40.7007 42.625L40.8647 43.0898L41.0835 43.5L41.3569 43.8555L41.521 44.0469H41.5757V44.1016L41.9585 44.4023L42.314 44.6211L42.7515 44.8125L43.1616 44.9219L43.5444 44.9766H44.0913L44.6108 44.8945L45.1304 44.7031L45.5405 44.4844L45.8413 44.2656L46.1694 43.9648L46.3882 43.7188L46.6343 43.3359L46.7983 43.0078L46.9351 42.5977L47.0171 42.1602L47.0444 41.668L46.9897 41.1758L46.853 40.6562L46.6616 40.2188L46.4155 39.8359L46.0874 39.4531L45.7319 39.1523L45.4312 38.9609L44.9937 38.7422L44.5562 38.6055L44.228 38.5508L43.7358 38.5234Z" fill="#2B2B2B"/>
</svg>
