<svg width="64" height="64" viewBox="0 0 64 64" fill="none" xmlns="http://www.w3.org/2000/svg">
<path d="M53.4224 26.077L49.9554 10.886C49.6824 9.68703 48.8904 8.69404 47.7814 8.16104L33.7434 1.39904C32.6344 0.865035 31.3654 0.865035 30.2564 1.39904L16.2194 8.16004C15.1104 8.69404 14.3184 9.68704 14.0454 10.885L10.5784 26.077C10.3054 27.275 10.5874 28.514 11.3534 29.475L21.0694 41.658C21.8164 42.595 22.9244 43.133 24.1184 43.16C24.0334 47.197 23.4374 51.283 22.8524 55.244C22.5564 57.253 22.2494 59.331 22.0124 61.385C21.9594 61.841 22.1494 62.299 22.5204 62.61C22.8254 62.864 23.2164 62.999 23.6144 62.999C23.7814 62.999 23.9504 62.975 24.1134 62.925C26.4144 62.229 28.8244 61.329 31.2754 60.252C31.7304 60.052 32.2744 60.053 32.7254 60.252C35.1774 61.33 37.5874 62.229 39.8884 62.925C40.4404 63.092 41.0484 62.97 41.4814 62.61C41.8524 62.3 42.0424 61.842 41.9894 61.386C41.7524 59.331 41.4454 57.253 41.1494 55.244C40.5644 51.283 39.9694 47.198 39.8834 43.16C41.0774 43.133 42.1854 42.595 42.9324 41.658L52.6484 29.475C53.4144 28.514 53.6964 27.275 53.4224 26.077ZM33.5034 58.477C33.0254 58.268 32.5134 58.163 32.0004 58.163C31.4874 58.163 30.9754 58.268 30.4964 58.477C28.2804 59.451 26.1034 60.274 24.0174 60.927C24.2374 59.122 24.5074 57.297 24.7684 55.526C25.3634 51.495 25.9764 47.336 26.0614 43.17H37.9394C38.0244 47.336 38.6374 51.495 39.2324 55.526C39.4934 57.297 39.7634 59.122 39.9834 60.927C37.8974 60.275 35.7204 59.452 33.5034 58.477ZM51.1324 28.267L41.4174 40.45C41.0214 40.948 40.4284 41.233 39.7924 41.233H38.8984H25.1034H24.2094C23.5724 41.233 22.9804 40.948 22.5844 40.45L12.8684 28.267C12.4714 27.769 12.3254 27.128 12.4664 26.508L15.9334 11.316C16.0754 10.696 16.4854 10.182 17.0594 9.90604L31.0984 3.14504H31.0994C31.3844 3.00604 31.6934 2.93704 32.0004 2.93704C32.3074 2.93704 32.6164 3.00604 32.9024 3.14404L46.9414 9.90504C47.5144 10.181 47.9254 10.695 48.0674 11.316L51.5344 26.507C51.6754 27.128 51.5294 27.769 51.1324 28.267Z" fill="#202A4E"/>
<path d="M32.0006 7.42725C23.9216 7.42725 17.3486 14.0002 17.3486 22.0792C17.3486 30.1582 23.9216 36.7302 32.0006 36.7302C40.0796 36.7302 46.6526 30.1572 46.6526 22.0782C46.6526 13.9992 40.0796 7.42725 32.0006 7.42725ZM32.0006 34.7932C24.9896 34.7932 19.2866 29.0902 19.2866 22.0792C19.2866 15.0682 24.9896 9.36425 32.0006 9.36425C39.0116 9.36425 44.7146 15.0672 44.7146 22.0782C44.7146 29.0892 39.0116 34.7932 32.0006 34.7932Z" fill="#202A4E"/>
<path d="M34.847 19.0099L33.111 13.6669C32.954 13.1849 32.507 12.8599 32 12.8599C31.493 12.8599 31.046 13.1839 30.889 13.6669L29.153 19.0099H23.536C23.029 19.0099 22.582 19.3339 22.425 19.8159C22.268 20.2979 22.438 20.8229 22.849 21.1219L27.395 24.4239L25.659 29.7669C25.502 30.2499 25.673 30.7749 26.084 31.0729C26.288 31.2219 26.529 31.2959 26.769 31.2959C27.01 31.2959 27.251 31.2209 27.456 31.0719L32 27.7699L36.545 31.0719C36.954 31.3699 37.506 31.3709 37.917 31.0729C38.328 30.7749 38.499 30.2499 38.342 29.7669L36.606 24.4239L41.153 21.1209C41.563 20.8229 41.733 20.2979 41.576 19.8159C41.419 19.3339 40.972 19.0099 40.465 19.0099H34.847ZM35.016 23.1839C34.604 23.4819 34.433 24.0059 34.59 24.4909L35.766 28.1119L32.685 25.8729C32.481 25.7249 32.24 25.6509 32.001 25.6509C31.76 25.6509 31.519 25.7249 31.313 25.8739L28.234 28.1119L29.41 24.4899C29.567 24.0059 29.396 23.4819 28.986 23.1849L25.906 20.9469H29.713C30.221 20.9469 30.668 20.6229 30.824 20.1409L32 16.5189L33.177 20.1399C33.333 20.6229 33.78 20.9469 34.288 20.9469H38.095L35.016 23.1839Z" fill="#202A4E"/>
</svg>
