<svg width="57" height="57" viewBox="0 0 57 57" fill="none" xmlns="http://www.w3.org/2000/svg">
<g clip-path="url(#clip0_77_1040)">
<path d="M42.9062 23.5895C42.9062 15.3631 36.2103 8.6792 27.9959 8.6792C19.7814 8.6792 13.0856 15.3631 13.0856 23.5895C13.0856 31.804 19.7695 38.4999 27.9959 38.4999C36.2222 38.4999 42.9062 31.804 42.9062 23.5895ZM27.9959 36.5748C20.8336 36.5748 14.9986 30.7518 14.9986 23.5776C14.9986 16.4034 20.8336 10.5923 27.9959 10.5923C35.1581 10.5923 40.9931 16.4154 40.9931 23.5895C40.9931 30.7637 35.1581 36.5748 27.9959 36.5748Z" fill="#2B2B2B"/>
<path d="M46.2657 39.0137C46.8038 38.7387 47.282 38.38 47.6528 37.8778C48.6212 36.5506 48.394 34.8168 48.1788 33.1308C48.0353 32.0428 47.8919 30.9069 48.1429 30.1416C48.3701 29.4242 49.1354 28.6231 49.8648 27.8579C51.0006 26.6621 52.28 25.311 52.28 23.6011C52.28 21.8913 51.0127 20.5163 49.8767 19.3206C49.1473 18.5433 48.3821 17.7542 48.1549 17.0368C47.9038 16.2716 48.0473 15.1356 48.1907 14.0475C48.406 12.3616 48.6212 10.6278 47.6647 9.3006C46.6962 7.96142 44.9624 7.63859 43.2884 7.31575C42.2123 7.11248 41.1003 6.90921 40.4666 6.44288C39.8328 5.98852 39.3067 5.00805 38.7926 4.05149C38.0153 2.61666 37.1186 0.990504 35.5284 0.464397C33.9978 -0.0377957 32.4315 0.703537 30.913 1.42095C29.8967 1.89923 28.8564 2.38947 28.0193 2.38947C27.1823 2.38947 26.1421 1.89923 25.1257 1.42095C23.6072 0.703537 22.0409 -0.0377957 20.5104 0.464397C18.9081 0.978547 18.0711 2.54491 17.2462 4.05149C16.732 4.9961 16.1939 5.98852 15.5721 6.44288C14.9265 6.90921 13.8264 7.12443 12.7503 7.31575C11.0763 7.62663 9.34257 7.96142 8.37405 9.3006C7.40554 10.6278 7.63272 12.3616 7.84795 14.0475C7.99143 15.1356 8.13491 16.2716 7.88382 17.0368C7.65663 17.7542 6.89138 18.5553 6.16201 19.3206C5.0261 20.5163 3.7467 21.8674 3.7467 23.5772C3.7467 25.2871 5.03805 26.6382 6.16201 27.8339C6.89138 28.6111 7.65663 29.4003 7.88382 30.1177C8.13491 30.8829 7.99143 32.0189 7.84795 33.1069C7.63272 34.7929 7.41749 36.5267 8.37405 37.8539C8.74472 38.3561 9.223 38.7267 9.76106 38.9897L4.54782 48.0173C4.35651 48.3521 4.38042 48.7706 4.61956 49.0815C4.85871 49.3923 5.25328 49.5239 5.62395 49.4282L13.3242 47.3597L15.3928 55.06C15.4884 55.4306 15.8113 55.7056 16.1939 55.7654C16.2417 55.7654 16.2776 55.7773 16.3135 55.7773C16.6483 55.7773 16.9711 55.598 17.1385 55.2991L22.0289 46.8216C23.0691 46.7021 24.1214 46.2118 25.1378 45.7335C26.1541 45.2552 27.1944 44.765 28.0313 44.765C28.8683 44.765 29.9086 45.2552 30.9249 45.7335C31.9412 46.2118 32.9935 46.714 34.0337 46.8216L38.9241 55.2991C39.0915 55.598 39.4143 55.7773 39.7492 55.7773C39.785 55.7773 39.8328 55.7773 39.8688 55.7654C40.2513 55.7176 40.5622 55.4425 40.6698 55.06L42.7384 47.3597L50.4387 49.4282C50.8094 49.5239 51.2039 49.3923 51.4431 49.0815C51.6822 48.7706 51.7061 48.3521 51.5148 48.0173L46.2657 39.0137ZM16.6005 52.3577L14.8906 45.9607C14.7591 45.4465 14.233 45.1476 13.7188 45.2791L7.32184 46.989L11.5785 39.6115C11.9492 39.6952 12.3318 39.767 12.7144 39.8387C13.7906 40.042 14.9026 40.2453 15.5363 40.7116C16.17 41.1659 16.6961 42.1465 17.2102 43.1029C17.9038 44.3824 18.681 45.8052 19.9723 46.4749L16.6005 52.3577ZM27.9955 42.8638C26.728 42.8638 25.4845 43.4498 24.2888 44.0117C23.1051 44.5737 21.8855 45.1476 21.0843 44.8846C20.2115 44.5976 19.5538 43.378 18.9081 42.2062C18.2864 41.0703 17.6526 39.8985 16.6722 39.1811C15.6797 38.4637 14.3525 38.2126 13.0731 37.9734C11.7698 37.7224 10.4187 37.4712 9.88064 36.7538C9.36648 36.0483 9.53388 34.6853 9.70128 33.382C9.86867 32.0787 10.0361 30.7394 9.65345 29.5557C9.28278 28.4318 8.37405 27.4633 7.5012 26.5425C6.56855 25.5621 5.60003 24.5458 5.60003 23.6011C5.60003 22.6565 6.56855 21.6402 7.5012 20.6597C8.38601 19.727 9.29474 18.7706 9.65345 17.6466C10.0361 16.4628 9.86867 15.1237 9.70128 13.8204C9.53388 12.5051 9.36648 11.1539 9.88064 10.4485C10.4067 9.7191 11.7579 9.468 13.0731 9.22886C14.3525 8.98972 15.6797 8.73862 16.6722 8.02121C17.6526 7.31575 18.2864 6.13201 18.9081 4.9961C19.5538 3.81235 20.2115 2.6047 21.0843 2.31773C21.8974 2.05468 23.117 2.62861 24.2888 3.19059C25.4845 3.75257 26.728 4.33846 27.9955 4.33846C29.2629 4.33846 30.5064 3.75257 31.7021 3.19059C32.8858 2.62861 34.1054 2.05468 34.9066 2.31773C35.7795 2.6047 36.4371 3.82431 37.0828 4.9961C37.7045 6.13201 38.3383 7.30379 39.3187 8.02121C40.3112 8.73862 41.6384 8.98972 42.9178 9.22886C44.2211 9.47996 45.5722 9.73104 46.1102 10.4485C46.6244 11.1539 46.457 12.517 46.2896 13.8204C46.1222 15.1237 45.9548 16.4628 46.3374 17.6466C46.7081 18.7706 47.6168 19.7391 48.4897 20.6597C49.4224 21.6402 50.3909 22.6565 50.3909 23.6011C50.3909 24.5458 49.4224 25.5621 48.4897 26.5425C47.6049 27.4752 46.6962 28.4318 46.3374 29.5557C45.9548 30.7394 46.1222 32.0787 46.2896 33.382C46.457 34.6972 46.6244 36.0483 46.1102 36.7538C45.5841 37.4832 44.233 37.7343 42.9178 37.9734C41.6384 38.2126 40.3112 38.4637 39.3187 39.1811C38.3383 39.8866 37.7045 41.0703 37.0828 42.2062C36.4371 43.3899 35.7795 44.5976 34.9066 44.8846C34.0935 45.1476 32.8739 44.5737 31.7021 44.0117C30.5064 43.4498 29.2629 42.8638 27.9955 42.8638ZM42.2721 45.2791C41.7579 45.1476 41.2318 45.4465 41.1003 45.9607L39.3904 52.3577L36.0066 46.4988C37.286 45.8412 38.0393 44.4661 38.7686 43.1269C39.2828 42.1823 39.8209 41.1899 40.4427 40.7355C41.0883 40.2692 42.1884 40.0539 43.2645 39.8626C43.6472 39.7909 44.0297 39.7191 44.4004 39.6354L48.6571 47.0129L42.2721 45.2791Z" fill="#2B2B2B"/>
<path d="M36.9636 17.7304C36.593 17.3597 35.9831 17.3597 35.6125 17.7304L25.9273 27.4156L20.3912 21.8795C20.0206 21.5088 19.4108 21.5088 19.0401 21.8795C18.6694 22.2501 18.6694 22.86 19.0401 23.2306L25.2577 29.4483C25.4371 29.6276 25.6762 29.7232 25.9393 29.7232C26.2024 29.7232 26.4415 29.6276 26.6208 29.4483L36.9636 19.0815C37.3342 18.7108 37.3342 18.1011 36.9636 17.7304Z" fill="#2B2B2B"/>
</g>
<defs>
<clipPath id="clip0_77_1040">
<rect width="56" height="56" fill="white" transform="translate(0.0134277 0.299805)"/>
</clipPath>
</defs>
</svg>
